<?xml version="1.0" encoding="UTF-8"?>
<!DOCTYPE svg PUBLIC "-//W3C//DTD SVG 1.1//EN" "http://www.w3.org/Graphics/SVG/1.1/DTD/svg11.dtd">
<svg xmlns="http://www.w3.org/2000/svg" version="1.1" width="532px" height="516px" style="shape-rendering:geometricPrecision; text-rendering:geometricPrecision; image-rendering:optimizeQuality; fill-rule:evenodd; clip-rule:evenodd" xmlns:xlink="http://www.w3.org/1999/xlink">
<g><path style="opacity:0.952" fill="#5c4585" d="M 241.5,-0.5 C 257.5,-0.5 273.5,-0.5 289.5,-0.5C 384.353,10.4821 455.52,57.1488 503,139.5C 518.5,169.49 528,201.157 531.5,234.5C 531.5,249.833 531.5,265.167 531.5,280.5C 518.306,378.402 467.306,448.902 378.5,492C 349.929,504.476 320.263,512.31 289.5,515.5C 273.5,515.5 257.5,515.5 241.5,515.5C 140.822,503.607 67.6557,452.607 22,362.5C 9.61797,334.635 2.11797,305.635 -0.5,275.5C -0.5,263.5 -0.5,251.5 -0.5,239.5C 10.9148,141.279 60.5815,69.7788 148.5,25C 178.2,11.3275 209.2,2.8275 241.5,-0.5 Z M 258.5,17.5 C 354.386,18.37 428.219,58.7033 480,138.5C 519.173,209.011 522.839,281.344 491,355.5C 448.804,437.716 381.637,484.55 289.5,496C 196.362,502 121.195,468.5 64,395.5C 17.3736,328.115 7.04027,255.448 33,177.5C 66.1293,96.3798 125.296,45.2131 210.5,24C 226.498,20.689 242.498,18.5224 258.5,17.5 Z M 254.5,44.5 C 333.942,43.4765 397.776,74.1431 446,136.5C 488.821,200.228 496.155,267.895 468,339.5C 435.967,407.514 383.134,449.681 309.5,466C 222.74,480.196 150.573,454.363 93,388.5C 44.9911,325.436 34.3244,256.436 61,181.5C 98.7811,98.339 163.281,52.6723 254.5,44.5 Z M 259.5,128.5 C 280.417,128.196 294.251,137.863 301,157.5C 301.828,161.871 301.661,166.205 300.5,170.5C 275.993,162.616 251.493,162.616 227,170.5C 225.145,155.701 230.312,143.867 242.5,135C 247.888,131.752 253.554,129.585 259.5,128.5 Z"/></g>
<g><path style="opacity:0.887" fill="#5c4585" d="M 250.5,36.5 C 324.747,33.5612 387.247,58.8945 438,112.5C 493.288,178.954 506.954,253.287 479,335.5C 449.961,403.942 399.794,448.775 328.5,470C 249.737,489.553 178.737,474.219 115.5,424C 47.3052,361.726 24.4718,285.559 47,195.5C 71.3134,122.52 119.813,73.3529 192.5,48C 211.567,42.1043 230.9,38.2709 250.5,36.5 Z M 254.5,44.5 C 163.281,52.6723 98.7811,98.339 61,181.5C 34.3244,256.436 44.9911,325.436 93,388.5C 150.573,454.363 222.74,480.196 309.5,466C 383.134,449.681 435.967,407.514 468,339.5C 496.155,267.895 488.821,200.228 446,136.5C 397.776,74.1431 333.942,43.4765 254.5,44.5 Z M 259.5,128.5 C 253.554,129.585 247.888,131.752 242.5,135C 230.312,143.867 225.145,155.701 227,170.5C 251.493,162.616 275.993,162.616 300.5,170.5C 301.661,166.205 301.828,161.871 301,157.5C 294.251,137.863 280.417,128.196 259.5,128.5 Z"/></g>
<g><path style="opacity:0.99" fill="#5d4585" d="M 255.5,93.5 C 292.666,91.8204 318.832,107.82 334,141.5C 335.313,145.42 336.313,149.42 337,153.5C 337.746,164.588 337.412,175.588 336,186.5C 379.936,219.622 396.269,263.288 385,317.5C 367.776,369.035 332.276,398.868 278.5,407C 229.292,410.947 189.792,393.447 160,354.5C 134.514,314.149 132.181,272.482 153,229.5C 162.551,212.083 175.551,197.75 192,186.5C 184.398,150.614 195.898,122.78 226.5,103C 235.737,98.1165 245.403,94.9499 255.5,93.5 Z M 259.5,128.5 C 253.554,129.585 247.888,131.752 242.5,135C 230.312,143.867 225.145,155.701 227,170.5C 251.493,162.616 275.993,162.616 300.5,170.5C 301.661,166.205 301.828,161.871 301,157.5C 294.251,137.863 280.417,128.196 259.5,128.5 Z"/></g>
<g><path style="opacity:1" fill="#fefdfe" d="M 255.5,225.5 C 282.528,223.367 295.695,235.701 295,262.5C 292.272,271.893 286.605,278.893 278,283.5C 277.667,301.833 277.333,320.167 277,338.5C 271.993,347.501 264.826,349.667 255.5,345C 253.951,343.786 252.785,342.286 252,340.5C 250.704,321.565 250.038,302.565 250,283.5C 234.959,275.068 229.625,262.402 234,245.5C 238.171,235.491 245.338,228.825 255.5,225.5 Z"/></g>
</svg>
